<svg width="9" height="9" viewBox="0 0 9 9" fill="none" xmlns="http://www.w3.org/2000/svg">
<path fill-rule="evenodd" clip-rule="evenodd" d="M5.53846 1.03846C5.53846 1.31388 5.42905 1.57802 5.2343 1.77276C5.03955 1.96751 4.77542 2.07692 4.5 2.07692C4.22458 2.07692 3.96045 1.96751 3.7657 1.77276C3.57095 1.57802 3.46154 1.31388 3.46154 1.03846C3.46154 0.763044 3.57095 0.498908 3.7657 0.304158C3.96045 0.109409 4.22458 0 4.5 0C4.77542 0 5.03955 0.109409 5.2343 0.304158C5.42905 0.498908 5.53846 0.763044 5.53846 1.03846ZM1.03846 5.53846C1.31388 5.53846 1.57802 5.42905 1.77276 5.2343C1.96751 5.03955 2.07692 4.77542 2.07692 4.5C2.07692 4.22458 1.96751 3.96045 1.77276 3.7657C1.57802 3.57095 1.31388 3.46154 1.03846 3.46154C0.763044 3.46154 0.498908 3.57095 0.304158 3.7657C0.109409 3.96045 0 4.22458 0 4.5C0 4.77542 0.109409 5.03955 0.304158 5.2343C0.498908 5.42905 0.763044 5.53846 1.03846 5.53846ZM5.53846 4.5C5.53846 4.77542 5.42905 5.03955 5.2343 5.2343C5.03955 5.42905 4.77542 5.53846 4.5 5.53846C4.22458 5.53846 3.96045 5.42905 3.7657 5.2343C3.57095 5.03955 3.46154 4.77542 3.46154 4.5C3.46154 4.22458 3.57095 3.96045 3.7657 3.7657C3.96045 3.57095 4.22458 3.46154 4.5 3.46154C4.77542 3.46154 5.03955 3.57095 5.2343 3.7657C5.42905 3.96045 5.53846 4.22458 5.53846 4.5ZM9 4.5C9 4.77542 8.89059 5.03955 8.69584 5.2343C8.50109 5.42905 8.23696 5.53846 7.96154 5.53846C7.68612 5.53846 7.42198 5.42905 7.22724 5.2343C7.03249 5.03955 6.92308 4.77542 6.92308 4.5C6.92308 4.22458 7.03249 3.96045 7.22724 3.7657C7.42198 3.57095 7.68612 3.46154 7.96154 3.46154C8.23696 3.46154 8.50109 3.57095 8.69584 3.7657C8.89059 3.96045 9 4.22458 9 4.5ZM7.96154 2.07692C8.23696 2.07692 8.50109 1.96751 8.69584 1.77276C8.89059 1.57802 9 1.31388 9 1.03846C9 0.763044 8.89059 0.498908 8.69584 0.304158C8.50109 0.109409 8.23696 0 7.96154 0C7.68612 0 7.42198 0.109409 7.22724 0.304158C7.03249 0.498908 6.92308 0.763044 6.92308 1.03846C6.92308 1.31388 7.03249 1.57802 7.22724 1.77276C7.42198 1.96751 7.68612 2.07692 7.96154 2.07692ZM2.07692 1.03846C2.07692 1.31388 1.96751 1.57802 1.77276 1.77276C1.57802 1.96751 1.31388 2.07692 1.03846 2.07692C0.763044 2.07692 0.498908 1.96751 0.304158 1.77276C0.109409 1.57802 0 1.31388 0 1.03846C0 0.763044 0.109409 0.498908 0.304158 0.304158C0.498908 0.109409 0.763044 0 1.03846 0C1.31388 0 1.57802 0.109409 1.77276 0.304158C1.96751 0.498908 2.07692 0.763044 2.07692 1.03846ZM4.5 9C4.77542 9 5.03955 8.89059 5.2343 8.69584C5.42905 8.50109 5.53846 8.23696 5.53846 7.96154C5.53846 7.68612 5.42905 7.42198 5.2343 7.22724C5.03955 7.03249 4.77542 6.92308 4.5 6.92308C4.22458 6.92308 3.96045 7.03249 3.7657 7.22724C3.57095 7.42198 3.46154 7.68612 3.46154 7.96154C3.46154 8.23696 3.57095 8.50109 3.7657 8.69584C3.96045 8.89059 4.22458 9 4.5 9ZM9 7.96154C9 8.23696 8.89059 8.50109 8.69584 8.69584C8.50109 8.89059 8.23696 9 7.96154 9C7.68612 9 7.42198 8.89059 7.22724 8.69584C7.03249 8.50109 6.92308 8.23696 6.92308 7.96154C6.92308 7.68612 7.03249 7.42198 7.22724 7.22724C7.42198 7.03249 7.68612 6.92308 7.96154 6.92308C8.23696 6.92308 8.50109 7.03249 8.69584 7.22724C8.89059 7.42198 9 7.68612 9 7.96154ZM1.03846 9C1.31388 9 1.57802 8.89059 1.77276 8.69584C1.96751 8.50109 2.07692 8.23696 2.07692 7.96154C2.07692 7.68612 1.96751 7.42198 1.77276 7.22724C1.57802 7.03249 1.31388 6.92308 1.03846 6.92308C0.763044 6.92308 0.498908 7.03249 0.304158 7.22724C0.109409 7.42198 0 7.68612 0 7.96154C0 8.23696 0.109409 8.50109 0.304158 8.69584C0.498908 8.89059 0.763044 9 1.03846 9Z" fill="white"/>
</svg>
