<svg width="177" height="16" viewBox="0 0 177 16" fill="none" xmlns="http://www.w3.org/2000/svg" xmlns:xlink="http://www.w3.org/1999/xlink">
<g id="Repeat group 1_inner" data-figma-trr="r6u2.5-0f">
<rect x="5.42189" y="2.00808" width="1.2" height="3.42395" rx="0.6" fill="#CE251F"/>
</g>
<use xlink:href="#Repeat%20group%201_inner" transform="translate(8.22605 -2.20416) rotate(60)"/>
<use xlink:href="#Repeat%20group%201_inner" transform="translate(14.2479 3.81772) rotate(120)"/>
<use xlink:href="#Repeat%20group%201_inner" transform="translate(12.0438 12.0438) rotate(-180)"/>
<use xlink:href="#Repeat%20group%201_inner" transform="translate(3.81772 14.2479) rotate(-120)"/>
<use xlink:href="#Repeat%20group%201_inner" transform="translate(-2.20416 8.22605) rotate(-60)"/>
<path d="M29.2958 5.528V6.188H27.6998V5.528C27.6998 5.48 27.6638 5.444 27.6278 5.444H22.3238C22.2758 5.444 22.2398 5.48 22.2398 5.528V7.304C22.2398 7.352 22.2758 7.388 22.3238 7.388H27.6278C28.5398 7.388 29.2958 8.132 29.2958 9.056V10.832C29.2958 11.756 28.5398 12.5 27.6278 12.5H22.3238C21.3998 12.5 20.6558 11.756 20.6558 10.832V10.172H22.2398V10.832C22.2398 10.88 22.2758 10.916 22.3238 10.916H27.6278C27.6638 10.916 27.6998 10.88 27.6998 10.832V9.056C27.6998 9.008 27.6638 8.972 27.6278 8.972H22.3238C21.3998 8.972 20.6558 8.228 20.6558 7.304V5.528C20.6558 4.604 21.3998 3.86 22.3238 3.86H27.6278C28.5398 3.86 29.2958 4.604 29.2958 5.528ZM38.995 3.86H40.891L36.895 9.272V12.5H35.311V9.272C34.051 7.556 32.563 5.576 31.315 3.86H33.199L36.103 7.532L38.995 3.86ZM49.6949 10.196V3.86H51.2909V12.5H49.5629L44.2349 6.164V12.5H42.6509V3.86H44.3789L49.6949 10.196ZM53.4033 3.86H62.0433V5.444H58.5273V12.5H56.9313V5.444H53.4033V3.86ZM71.4008 3.86H72.9848V12.5H71.4008V8.972H65.7368V12.5H64.1528V3.86H65.7368V7.388H71.4008V3.86ZM75.5238 13.484V12.5H84.2598V13.484H75.5238ZM93.9813 12.5L91.1613 9.14H92.4333L95.2653 12.488V12.5H93.9813ZM86.6853 12.5V3.872H93.8853C94.1493 3.872 94.3893 3.94 94.6053 4.076C94.8293 4.204 95.0053 4.376 95.1333 4.592C95.2613 4.808 95.3253 5.048 95.3253 5.312V7.844C95.3253 8.108 95.2613 8.348 95.1333 8.564C95.0053 8.78 94.8293 8.956 94.6053 9.092C94.3893 9.22 94.1493 9.284 93.8853 9.284H87.6573V12.5H86.6853ZM88.1253 8.3H93.8853C94.0133 8.3 94.1213 8.256 94.2093 8.168C94.3053 8.08 94.3533 7.972 94.3533 7.844V5.312C94.3533 5.184 94.3053 5.076 94.2093 4.988C94.1213 4.892 94.0133 4.844 93.8853 4.844H88.1253C87.9973 4.844 87.8853 4.892 87.7893 4.988C87.7013 5.076 87.6573 5.184 87.6573 5.312V7.844C87.6573 7.972 87.7013 8.08 87.7893 8.168C87.8853 8.256 87.9973 8.3 88.1253 8.3ZM97.8117 12.5V3.86H105.696V4.832H98.7837V7.688H104.34V8.672H98.7837V11.528H105.696V12.5H97.8117ZM108.211 12.5V3.86H115.039C115.303 3.86 115.543 3.924 115.759 4.052C115.983 4.18 116.159 4.356 116.287 4.58C116.415 4.796 116.479 5.036 116.479 5.3V7.136C116.479 7.248 116.463 7.36 116.431 7.472C116.407 7.576 116.371 7.676 116.323 7.772C116.499 8.036 116.631 8.264 116.719 8.456C116.807 8.648 116.851 8.844 116.851 9.044V11.06C116.851 11.324 116.787 11.568 116.659 11.792C116.531 12.008 116.355 12.18 116.131 12.308C115.915 12.436 115.675 12.5 115.411 12.5H108.211ZM109.651 11.528H115.411C115.539 11.528 115.647 11.484 115.735 11.396C115.831 11.3 115.879 11.188 115.879 11.06V9.044C115.879 8.916 115.831 8.808 115.735 8.72C115.647 8.624 115.539 8.576 115.411 8.576H109.651C109.523 8.576 109.411 8.624 109.315 8.72C109.227 8.808 109.183 8.916 109.183 9.044V11.06C109.183 11.188 109.227 11.3 109.315 11.396C109.411 11.484 109.523 11.528 109.651 11.528ZM109.651 7.604H115.039C115.167 7.604 115.275 7.56 115.363 7.472C115.451 7.376 115.495 7.264 115.495 7.136V5.3C115.495 5.172 115.451 5.064 115.363 4.976C115.275 4.88 115.167 4.832 115.039 4.832H109.651C109.523 4.832 109.411 4.88 109.315 4.976C109.227 5.064 109.183 5.172 109.183 5.3V7.136C109.183 7.264 109.227 7.376 109.315 7.472C109.411 7.56 109.523 7.604 109.651 7.604ZM119.384 12.5V3.86H127.268V4.832H120.356V7.688H125.912V8.672H120.356V11.528H127.268V12.5H119.384ZM129.759 12.5V3.848H130.731V11.528H138.399V12.5H129.759ZM140.311 12.5V3.848H141.283V11.528H148.951V12.5H140.311ZM150.97 12.5V3.86H151.954V12.5H150.97ZM156.033 12.5C155.769 12.5 155.525 12.436 155.301 12.308C155.085 12.18 154.913 12.008 154.785 11.792C154.657 11.568 154.593 11.324 154.593 11.06V5.3C154.593 5.036 154.657 4.796 154.785 4.58C154.913 4.356 155.085 4.18 155.301 4.052C155.525 3.924 155.769 3.86 156.033 3.86H161.793C162.057 3.86 162.297 3.924 162.513 4.052C162.737 4.18 162.913 4.356 163.041 4.58C163.169 4.796 163.233 5.036 163.233 5.3V11.06C163.233 11.324 163.169 11.568 163.041 11.792C162.913 12.008 162.737 12.18 162.513 12.308C162.297 12.436 162.057 12.5 161.793 12.5H156.033ZM156.033 11.528H161.793C161.921 11.528 162.029 11.484 162.117 11.396C162.213 11.3 162.261 11.188 162.261 11.06V5.3C162.261 5.172 162.213 5.064 162.117 4.976C162.029 4.88 161.921 4.832 161.793 4.832H156.033C155.905 4.832 155.793 4.88 155.697 4.976C155.609 5.064 155.565 5.172 155.565 5.3V11.06C155.565 11.188 155.609 11.3 155.697 11.396C155.793 11.484 155.905 11.528 156.033 11.528ZM165.754 12.5V3.86H167.086L173.422 11.396V3.86H174.394V12.5H173.062L166.726 4.964V12.5H165.754Z" fill="white"/>
</svg>
