<svg width="11" height="13" viewBox="0 0 11 13" fill="none" xmlns="http://www.w3.org/2000/svg">
<path d="M1.63098 1.06114C1.56753 1.02178 1.49527 1.00069 1.42151 1.00002C1.34776 0.999343 1.27515 1.01911 1.21106 1.0573C1.14697 1.0955 1.09369 1.15077 1.05662 1.21749C1.01955 1.28421 1.00001 1.36001 1 1.43719V11.5628C1.00001 11.64 1.01955 11.7158 1.05662 11.7825C1.09369 11.8492 1.14697 11.9045 1.21106 11.9427C1.27515 11.9809 1.34776 12.0007 1.42151 12C1.49527 11.9993 1.56753 11.9782 1.63098 11.9389L9.79537 6.87605C9.85772 6.83733 9.90938 6.7823 9.94526 6.71637C9.98113 6.65044 10 6.57587 10 6.5C10 6.42413 9.98113 6.34956 9.94526 6.28363C9.90938 6.2177 9.85772 6.16267 9.79537 6.12395L1.63098 1.06114Z" stroke="white" stroke-width="1.5" stroke-linecap="round" stroke-linejoin="round"/>
</svg>
